<svg xmlns="http://www.w3.org/2000/svg" viewBox="0 0 96 48" role="img" aria-label=">;:">
  <g fill="#b8c4d0">
    <ellipse cx="18" cy="30" rx="5" ry="3.5" opacity="0.85"/>
    <ellipse cx="34" cy="32" rx="4.5" ry="3" opacity="0.85"/>
    <ellipse cx="58" cy="31" rx="4.5" ry="3" opacity="0.85"/>
    <ellipse cx="74" cy="29" rx="4" ry="2.8" opacity="0.85"/>
    <path d="M12 24c8-10 22-14 34-12 8 1.5 14 6 18 12 2 3 2.5 7 1 10l-3 4c-1.5 2-4 3-6.5 2.5l-6-1.2c-3-.6-6 .2-8.5 2.2l-4.5 3.5c-2 1.5-4.8 1.8-7 1l-6-2.5c-3-1.2-5.5-3.5-6.5-6.5l-1.5-5c-.8-2.8 0-5.8 2-8z"/>
    <path d="M68 12c4-1 8 0 10 3 1.5 2 1 5-1 7l-2 2.5c-1.2 1.5-3 2-4.8 1.5l-3-.8c-2.2-.6-4.5.3-6 2.2l-1.5 2" fill="#9aa8b8"/>
    <circle cx="76" cy="16" r="2.2" fill="#07090d"/>
    <path d="M80 15.5c2 .8 3.5 2.5 4 4.5" stroke="#07090d" stroke-width="1.2" stroke-linecap="round" fill="none"/>
    <path d="M8 22c-3 1-5 3-5.5 5.5" stroke="#9aa8b8" stroke-width="2" stroke-linecap="round" fill="none"/>
    <path d="M14 18l-4-5 2-1 3 4z" fill="#d4dde6"/>
  </g>
</svg>
